<svg xmlns="http://www.w3.org/2000/svg" xmlns:xlink="http://www.w3.org/1999/xlink" width="959" height="275" viewBox="0 0 959 275">
  <defs>
    <filter id="Line_41" x="38.5" y="106.5" width="215" height="23" filterUnits="userSpaceOnUse">
      <feOffset dy="3" input="SourceAlpha"/>
      <feGaussianBlur stdDeviation="3" result="blur"/>
      <feFlood flood-opacity="0.161"/>
      <feComposite operator="in" in2="blur"/>
      <feComposite in="SourceGraphic"/>
    </filter>
    <filter id="Line_77" x="199.545" y="13.545" width="195.91" height="134.91" filterUnits="userSpaceOnUse">
      <feOffset dy="3" input="SourceAlpha"/>
      <feGaussianBlur stdDeviation="3" result="blur-2"/>
      <feFlood flood-opacity="0.161"/>
      <feComposite operator="in" in2="blur-2"/>
      <feComposite in="SourceGraphic"/>
    </filter>
    <filter id="Line_78" x="333.513" y="15.513" width="300.974" height="221.974" filterUnits="userSpaceOnUse">
      <feOffset dy="3" input="SourceAlpha"/>
      <feGaussianBlur stdDeviation="3" result="blur-3"/>
      <feFlood flood-opacity="0.161"/>
      <feComposite operator="in" in2="blur-3"/>
      <feComposite in="SourceGraphic"/>
    </filter>
    <filter id="Line_90" x="599.5" y="38.5" width="23" height="198" filterUnits="userSpaceOnUse">
      <feOffset dy="3" input="SourceAlpha"/>
      <feGaussianBlur stdDeviation="3" result="blur-4"/>
      <feFlood flood-opacity="0.161"/>
      <feComposite operator="in" in2="blur-4"/>
      <feComposite in="SourceGraphic"/>
    </filter>
    <filter id="Line_79" x="593.469" y="94.469" width="155.063" height="143.063" filterUnits="userSpaceOnUse">
      <feOffset dy="3" input="SourceAlpha"/>
      <feGaussianBlur stdDeviation="3" result="blur-5"/>
      <feFlood flood-opacity="0.161"/>
      <feComposite operator="in" in2="blur-5"/>
      <feComposite in="SourceGraphic"/>
    </filter>
    <filter id="Line_80" x="705.5" y="106.5" width="215" height="23" filterUnits="userSpaceOnUse">
      <feOffset dy="3" input="SourceAlpha"/>
      <feGaussianBlur stdDeviation="3" result="blur-6"/>
      <feFlood flood-opacity="0.161"/>
      <feComposite operator="in" in2="blur-6"/>
      <feComposite in="SourceGraphic"/>
    </filter>
    <filter id="Line_81" x="574.522" y="13.522" width="183.957" height="134.957" filterUnits="userSpaceOnUse">
      <feOffset dy="3" input="SourceAlpha"/>
      <feGaussianBlur stdDeviation="3" result="blur-7"/>
      <feFlood flood-opacity="0.161"/>
      <feComposite operator="in" in2="blur-7"/>
      <feComposite in="SourceGraphic"/>
    </filter>
    <filter id="Line_82" x="334.5" y="38.5" width="299" height="23" filterUnits="userSpaceOnUse">
      <feOffset dy="3" input="SourceAlpha"/>
      <feGaussianBlur stdDeviation="3" result="blur-8"/>
      <feFlood flood-opacity="0.161"/>
      <feComposite operator="in" in2="blur-8"/>
      <feComposite in="SourceGraphic"/>
    </filter>
    <filter id="Line_89" x="344.5" y="38.5" width="23" height="198" filterUnits="userSpaceOnUse">
      <feOffset dy="3" input="SourceAlpha"/>
      <feGaussianBlur stdDeviation="3" result="blur-9"/>
      <feFlood flood-opacity="0.161"/>
      <feComposite operator="in" in2="blur-9"/>
      <feComposite in="SourceGraphic"/>
    </filter>
    <filter id="Line_83" x="344.5" y="213.5" width="278" height="23" filterUnits="userSpaceOnUse">
      <feOffset dy="3" input="SourceAlpha"/>
      <feGaussianBlur stdDeviation="3" result="blur-10"/>
      <feFlood flood-opacity="0.161"/>
      <feComposite operator="in" in2="blur-10"/>
      <feComposite in="SourceGraphic"/>
    </filter>
    <filter id="Line_84" x="210.476" y="94.476" width="164.048" height="143.048" filterUnits="userSpaceOnUse">
      <feOffset dy="3" input="SourceAlpha"/>
      <feGaussianBlur stdDeviation="3" result="blur-11"/>
      <feFlood flood-opacity="0.161"/>
      <feComposite operator="in" in2="blur-11"/>
      <feComposite in="SourceGraphic"/>
    </filter>
    <filter id="Path_2" x="0" y="68" width="100" height="100" filterUnits="userSpaceOnUse">
      <feOffset dy="3" input="SourceAlpha"/>
      <feGaussianBlur stdDeviation="3" result="blur-12"/>
      <feFlood flood-opacity="0.161"/>
      <feComposite operator="in" in2="blur-12"/>
      <feComposite in="SourceGraphic"/>
    </filter>
    <filter id="Ellipse_28" x="178" y="68" width="100" height="100" filterUnits="userSpaceOnUse">
      <feOffset dy="3" input="SourceAlpha"/>
      <feGaussianBlur stdDeviation="3" result="blur-13"/>
      <feFlood flood-opacity="0.161"/>
      <feComposite operator="in" in2="blur-13"/>
      <feComposite in="SourceGraphic"/>
    </filter>
    <filter id="Ellipse_28-2" x="306" y="0" width="100" height="100" filterUnits="userSpaceOnUse">
      <feOffset dy="3" input="SourceAlpha"/>
      <feGaussianBlur stdDeviation="3" result="blur-14"/>
      <feFlood flood-opacity="0.161"/>
      <feComposite operator="in" in2="blur-14"/>
      <feComposite in="SourceGraphic"/>
    </filter>
    <filter id="Ellipse_28-3" x="306" y="175" width="100" height="100" filterUnits="userSpaceOnUse">
      <feOffset dy="3" input="SourceAlpha"/>
      <feGaussianBlur stdDeviation="3" result="blur-15"/>
      <feFlood flood-opacity="0.161"/>
      <feComposite operator="in" in2="blur-15"/>
      <feComposite in="SourceGraphic"/>
    </filter>
    <filter id="Ellipse_28-4" x="561" y="175" width="100" height="100" filterUnits="userSpaceOnUse">
      <feOffset dy="3" input="SourceAlpha"/>
      <feGaussianBlur stdDeviation="3" result="blur-16"/>
      <feFlood flood-opacity="0.161"/>
      <feComposite operator="in" in2="blur-16"/>
      <feComposite in="SourceGraphic"/>
    </filter>
    <filter id="Ellipse_28-5" x="561" y="0" width="100" height="100" filterUnits="userSpaceOnUse">
      <feOffset dy="3" input="SourceAlpha"/>
      <feGaussianBlur stdDeviation="3" result="blur-17"/>
      <feFlood flood-opacity="0.161"/>
      <feComposite operator="in" in2="blur-17"/>
      <feComposite in="SourceGraphic"/>
    </filter>
    <filter id="Ellipse_28-6" x="681" y="68" width="100" height="100" filterUnits="userSpaceOnUse">
      <feOffset dy="3" input="SourceAlpha"/>
      <feGaussianBlur stdDeviation="3" result="blur-18"/>
      <feFlood flood-opacity="0.161"/>
      <feComposite operator="in" in2="blur-18"/>
      <feComposite in="SourceGraphic"/>
    </filter>
    <filter id="Ellipse_42" x="859" y="68" width="100" height="100" filterUnits="userSpaceOnUse">
      <feOffset dy="3" input="SourceAlpha"/>
      <feGaussianBlur stdDeviation="3" result="blur-19"/>
      <feFlood flood-opacity="0.161"/>
      <feComposite operator="in" in2="blur-19"/>
      <feComposite in="SourceGraphic"/>
    </filter>
  </defs>
  <g id="Component_23_1" data-name="Component 23 – 1" transform="translate(9 6)">
    <g id="Component_21_2" data-name="Component 21 – 2">
      <g transform="matrix(1, 0, 0, 1, -9, -6)" filter="url(#Line_41)">
        <line id="Line_41-2" data-name="Line 41" x2="192" transform="translate(50 115)" fill="rgba(0,0,0,0)" stroke="#fff" stroke-linecap="square" stroke-width="5"/>
      </g>
      <g transform="matrix(1, 0, 0, 1, -9, -6)" filter="url(#Line_77)">
        <line id="Line_77-2" data-name="Line 77" y1="110" x2="171" transform="translate(212 23)" fill="rgba(0,0,0,0)" stroke="#fff" stroke-linecap="square" stroke-width="5"/>
      </g>
      <g transform="matrix(1, 0, 0, 1, -9, -6)" filter="url(#Line_78)">
        <line id="Line_78-2" data-name="Line 78" y1="197" x2="276" transform="translate(346 25)" fill="rgba(0,0,0,0)" stroke="#fff" stroke-linecap="square" stroke-width="5"/>
      </g>
      <g transform="matrix(1, 0, 0, 1, -9, -6)" filter="url(#Line_90)">
        <line id="Line_90-2" data-name="Line 90" y1="175" transform="translate(611 47)" fill="rgba(0,0,0,0)" stroke="#fff" stroke-linecap="square" stroke-width="5"/>
      </g>
      <g transform="matrix(1, 0, 0, 1, -9, -6)" filter="url(#Line_79)">
        <line id="Line_79-2" data-name="Line 79" y1="118" x2="130" transform="translate(606 104)" fill="rgba(0,0,0,0)" stroke="#fff" stroke-linecap="square" stroke-width="5"/>
      </g>
      <g transform="matrix(1, 0, 0, 1, -9, -6)" filter="url(#Line_80)">
        <line id="Line_80-2" data-name="Line 80" x2="192" transform="translate(717 115)" fill="rgba(0,0,0,0)" stroke="#fff" stroke-linecap="square" stroke-width="5"/>
      </g>
      <g transform="matrix(1, 0, 0, 1, -9, -6)" filter="url(#Line_81)">
        <line id="Line_81-2" data-name="Line 81" x1="159" y1="110" transform="translate(587 23)" fill="rgba(0,0,0,0)" stroke="#fff" stroke-linecap="square" stroke-width="5"/>
      </g>
      <g transform="matrix(1, 0, 0, 1, -9, -6)" filter="url(#Line_82)">
        <line id="Line_82-2" data-name="Line 82" x1="276" transform="translate(346 47)" fill="rgba(0,0,0,0)" stroke="#fff" stroke-linecap="square" stroke-width="5"/>
      </g>
      <g transform="matrix(1, 0, 0, 1, -9, -6)" filter="url(#Line_89)">
        <line id="Line_89-2" data-name="Line 89" y1="175" transform="translate(356 47)" fill="rgba(0,0,0,0)" stroke="#fff" stroke-linecap="square" stroke-width="5"/>
      </g>
      <g transform="matrix(1, 0, 0, 1, -9, -6)" filter="url(#Line_83)">
        <line id="Line_83-2" data-name="Line 83" x1="255" transform="translate(356 222)" fill="rgba(0,0,0,0)" stroke="#fff" stroke-linecap="square" stroke-width="5"/>
      </g>
      <g transform="matrix(1, 0, 0, 1, -9, -6)" filter="url(#Line_84)">
        <line id="Line_84-2" data-name="Line 84" x1="139" y1="118" transform="translate(223 104)" fill="rgba(0,0,0,0)" stroke="#fff" stroke-linecap="square" stroke-width="5"/>
      </g>
      <path id="Path_4" data-name="Path 4" d="M178,1.666" transform="translate(41.5 96.834)" fill="none" stroke="#414141" stroke-width="3" stroke-dasharray="10"/>
      <g id="Component_20_2" data-name="Component 20 – 2" transform="translate(0 68)">
        <g transform="matrix(1, 0, 0, 1, -9, -74)" filter="url(#Path_2)">
          <g id="Path_2-2" data-name="Path 2" transform="translate(9 74)" fill="#aff2af">
            <path d="M 41 81.5 C 35.53231048583984 81.5 30.22844505310059 80.42925262451172 25.23572158813477 78.31751251220703 C 20.41307830810547 76.27770233154297 16.08178901672363 73.35743713378906 12.36217784881592 69.63782501220703 C 8.642566680908203 65.918212890625 5.722300052642822 61.58692169189453 3.682488918304443 56.76427841186523 C 1.570744395256042 51.77155685424805 0.5 46.46768951416016 0.5 41 C 0.5 35.53231048583984 1.570744395256042 30.22844505310059 3.682488918304443 25.23572158813477 C 5.722300052642822 20.41307830810547 8.642566680908203 16.08178901672363 12.36217784881592 12.36217784881592 C 16.08178901672363 8.642566680908203 20.41307830810547 5.722300052642822 25.23572158813477 3.682488918304443 C 30.22844505310059 1.570744395256042 35.53231048583984 0.5 41 0.5 C 46.46768951416016 0.5 51.77155685424805 1.570744395256042 56.76427841186523 3.682488918304443 C 61.58692169189453 5.722300052642822 65.918212890625 8.642566680908203 69.63782501220703 12.36217784881592 C 73.35743713378906 16.08178901672363 76.27770233154297 20.41307830810547 78.31751251220703 25.23572158813477 C 80.42925262451172 30.22844505310059 81.5 35.53231048583984 81.5 41 C 81.5 46.46768951416016 80.42925262451172 51.77155685424805 78.31751251220703 56.76427841186523 C 76.27770233154297 61.58692169189453 73.35743713378906 65.918212890625 69.63782501220703 69.63782501220703 C 65.918212890625 73.35743713378906 61.58692169189453 76.27770233154297 56.76427841186523 78.31751251220703 C 51.77155685424805 80.42925262451172 46.46768951416016 81.5 41 81.5 Z" stroke="none"/>
            <path d="M 41 1 C 35.59959030151367 1 30.36125564575195 2.057456970214844 25.43050003051758 4.142990112304688 C 20.66744613647461 6.157585144042969 16.38957977294922 9.041877746582031 12.71572113037109 12.71572113037109 C 9.041877746582031 16.38957977294922 6.157585144042969 20.66744613647461 4.142990112304688 25.43050003051758 C 2.057456970214844 30.36125564575195 1 35.59959030151367 1 41 C 1 46.40040969848633 2.057456970214844 51.63874435424805 4.142990112304688 56.56949996948242 C 6.157585144042969 61.33255767822266 9.041877746582031 65.61042022705078 12.71572113037109 69.28427886962891 C 16.38957977294922 72.95812225341797 20.66744613647461 75.8424072265625 25.43050003051758 77.85700988769531 C 30.36125564575195 79.94254302978516 35.59959030151367 81 41 81 C 46.40040969848633 81 51.63874435424805 79.94254302978516 56.56949996948242 77.85700988769531 C 61.33255767822266 75.8424072265625 65.61042022705078 72.95812225341797 69.28427886962891 69.28427886962891 C 72.95812225341797 65.61042022705078 75.8424072265625 61.33255767822266 77.85700988769531 56.56949996948242 C 79.94254302978516 51.63874435424805 81 46.40040969848633 81 41 C 81 35.59959030151367 79.94254302978516 30.36125564575195 77.85700988769531 25.43050003051758 C 75.8424072265625 20.66744613647461 72.95812225341797 16.38957977294922 69.28427886962891 12.71572113037109 C 65.61042022705078 9.041877746582031 61.33255767822266 6.157585144042969 56.56949996948242 4.142990112304688 C 51.63874435424805 2.057456970214844 46.40040969848633 1 41 1 M 41 0 C 63.6436767578125 0 82 18.3563232421875 82 41 C 82 63.6436767578125 63.6436767578125 82 41 82 C 18.3563232421875 82 0 63.6436767578125 0 41 C 0 18.3563232421875 18.3563232421875 0 41 0 Z" stroke="none" fill="#707070"/>
          </g>
        </g>
      </g>
      <g id="Component_15_2" data-name="Component 15 – 2" transform="translate(178 68)">
        <g transform="matrix(1, 0, 0, 1, -187, -74)" filter="url(#Ellipse_28)">
          <g id="Ellipse_28-7" data-name="Ellipse 28" transform="translate(187 74)" fill="#f2afaf" stroke="#707070" stroke-width="1">
            <circle cx="41" cy="41" r="41" stroke="none"/>
            <circle cx="41" cy="41" r="40.5" fill="none"/>
          </g>
        </g>
      </g>
      <g id="Component_15_3" data-name="Component 15 – 3" transform="translate(306)">
        <g transform="matrix(1, 0, 0, 1, -315, -6)" filter="url(#Ellipse_28-2)">
          <g id="Ellipse_28-8" data-name="Ellipse 28" transform="translate(315 6)" fill="#f2afaf" stroke="#707070" stroke-width="1">
            <circle cx="41" cy="41" r="41" stroke="none"/>
            <circle cx="41" cy="41" r="40.5" fill="none"/>
          </g>
        </g>
      </g>
      <g id="Component_15_4" data-name="Component 15 – 4" transform="translate(306 175)">
        <g transform="matrix(1, 0, 0, 1, -315, -181)" filter="url(#Ellipse_28-3)">
          <g id="Ellipse_28-9" data-name="Ellipse 28" transform="translate(315 181)" fill="#f2afaf" stroke="#707070" stroke-width="1">
            <circle cx="41" cy="41" r="41" stroke="none"/>
            <circle cx="41" cy="41" r="40.5" fill="none"/>
          </g>
        </g>
      </g>
      <g id="Component_15_5" data-name="Component 15 – 5" transform="translate(561 175)">
        <g transform="matrix(1, 0, 0, 1, -570, -181)" filter="url(#Ellipse_28-4)">
          <g id="Ellipse_28-10" data-name="Ellipse 28" transform="translate(570 181)" fill="#f2afaf" stroke="#707070" stroke-width="1">
            <circle cx="41" cy="41" r="41" stroke="none"/>
            <circle cx="41" cy="41" r="40.5" fill="none"/>
          </g>
        </g>
      </g>
      <g id="Component_15_6" data-name="Component 15 – 6" transform="translate(561)">
        <g transform="matrix(1, 0, 0, 1, -570, -6)" filter="url(#Ellipse_28-5)">
          <g id="Ellipse_28-11" data-name="Ellipse 28" transform="translate(570 6)" fill="#f2afaf" stroke="#707070" stroke-width="1">
            <circle cx="41" cy="41" r="41" stroke="none"/>
            <circle cx="41" cy="41" r="40.5" fill="none"/>
          </g>
        </g>
      </g>
      <g id="Component_15_7" data-name="Component 15 – 7" transform="translate(681 68)">
        <g transform="matrix(1, 0, 0, 1, -690, -74)" filter="url(#Ellipse_28-6)">
          <g id="Ellipse_28-12" data-name="Ellipse 28" transform="translate(690 74)" fill="#f2afaf" stroke="#707070" stroke-width="1">
            <circle cx="41" cy="41" r="41" stroke="none"/>
            <circle cx="41" cy="41" r="40.5" fill="none"/>
          </g>
        </g>
      </g>
      <g id="Component_19_2" data-name="Component 19 – 2" transform="translate(859 68)">
        <g transform="matrix(1, 0, 0, 1, -868, -74)" filter="url(#Ellipse_42)">
          <g id="Ellipse_42-2" data-name="Ellipse 42" transform="translate(868 74)" fill="#afb1f2" stroke="#707070" stroke-width="1">
            <circle cx="41" cy="41" r="41" stroke="none"/>
            <circle cx="41" cy="41" r="40.5" fill="none"/>
          </g>
        </g>
      </g>
      <g id="Rectangle_23" data-name="Rectangle 23" transform="translate(82 64)" fill="#aff2f0" stroke="#707070" stroke-width="1">
        <rect width="25" height="25" rx="12.5" stroke="none"/>
        <rect x="0.5" y="0.5" width="24" height="24" rx="12" fill="none"/>
      </g>
      <g id="Rectangle_30" data-name="Rectangle 30" transform="translate(271 120)" fill="#aff2f0" stroke="#707070" stroke-width="1">
        <rect width="25" height="25" rx="12.5" stroke="none"/>
        <rect x="0.5" y="0.5" width="24" height="24" rx="12" fill="none"/>
      </g>
      <g id="Rectangle_36" data-name="Rectangle 36" transform="translate(418 185)" fill="#aff2f0" stroke="#707070" stroke-width="1">
        <rect width="25" height="25" rx="12.5" stroke="none"/>
        <rect x="0.5" y="0.5" width="24" height="24" rx="12" fill="none"/>
      </g>
      <g id="Rectangle_41" data-name="Rectangle 41" transform="translate(664 160)" fill="#aff2f0" stroke="#707070" stroke-width="1">
        <rect width="25" height="25" rx="12.5" stroke="none"/>
        <rect x="0.5" y="0.5" width="24" height="24" rx="12" fill="none"/>
      </g>
      <g id="Rectangle_44" data-name="Rectangle 44" transform="translate(788 73)" fill="#aff2f0" stroke="#707070" stroke-width="1">
        <rect width="25" height="25" rx="12.5" stroke="none"/>
        <rect x="0.5" y="0.5" width="24" height="24" rx="12" fill="none"/>
      </g>
      <g id="Rectangle_26" data-name="Rectangle 26" transform="translate(107 64)" fill="#aff2f0" stroke="#707070" stroke-width="1">
        <rect width="25" height="25" rx="12.5" stroke="none"/>
        <rect x="0.5" y="0.5" width="24" height="24" rx="12" fill="none"/>
      </g>
      <g id="Rectangle_32" data-name="Rectangle 32" transform="translate(250 53)" fill="#aff2f0" stroke="#707070" stroke-width="1">
        <rect width="25" height="25" rx="12.5" stroke="none"/>
        <rect x="0.5" y="0.5" width="24" height="24" rx="12" fill="none"/>
      </g>
      <g id="Rectangle_37" data-name="Rectangle 37" transform="translate(389 11)" fill="#aff2f0" stroke="#707070" stroke-width="1">
        <rect width="25" height="25" rx="12.5" stroke="none"/>
        <rect x="0.5" y="0.5" width="24" height="24" rx="12" fill="none"/>
      </g>
      <g id="Rectangle_38" data-name="Rectangle 38" transform="translate(646 35)" fill="#aff2f0" stroke="#707070" stroke-width="1">
        <rect width="25" height="25" rx="12.5" stroke="none"/>
        <rect x="0.5" y="0.5" width="24" height="24" rx="12" fill="none"/>
      </g>
      <g id="Rectangle_45" data-name="Rectangle 45" transform="translate(813 73)" fill="#aff2f0" stroke="#707070" stroke-width="1">
        <rect width="25" height="25" rx="12.5" stroke="none"/>
        <rect x="0.5" y="0.5" width="24" height="24" rx="12" fill="none"/>
      </g>
      <g id="Rectangle_27" data-name="Rectangle 27" transform="translate(132 64)" fill="#aff2f0" stroke="#707070" stroke-width="1">
        <rect width="25" height="25" rx="12.5" stroke="none"/>
        <rect x="0.5" y="0.5" width="24" height="24" rx="12" fill="none"/>
      </g>
      <g id="Rectangle_31" data-name="Rectangle 31" transform="translate(289 139)" fill="#aff2f0" stroke="#707070" stroke-width="1">
        <rect width="25" height="25" rx="12.5" stroke="none"/>
        <rect x="0.5" y="0.5" width="24" height="24" rx="12" fill="none"/>
      </g>
      <g id="Rectangle_34" data-name="Rectangle 34" transform="translate(418 116)" fill="#aff2f0" stroke="#707070" stroke-width="1">
        <rect width="25" height="25" rx="12.5" stroke="none"/>
        <rect x="0.5" y="0.5" width="24" height="24" rx="12" fill="none"/>
      </g>
      <g id="Rectangle_39" data-name="Rectangle 39" transform="translate(608 113)" fill="#aff2f0" stroke="#707070" stroke-width="1">
        <rect width="25" height="25" rx="12.5" stroke="none"/>
        <rect x="0.5" y="0.5" width="24" height="24" rx="12" fill="none"/>
      </g>
      <g id="Rectangle_40" data-name="Rectangle 40" transform="translate(645 175)" fill="#aff2f0" stroke="#707070" stroke-width="1">
        <rect width="25" height="25" rx="12.5" stroke="none"/>
        <rect x="0.5" y="0.5" width="24" height="24" rx="12" fill="none"/>
      </g>
      <g id="Rectangle_43" data-name="Rectangle 43" transform="translate(763 74)" fill="#aff2f0" stroke="#707070" stroke-width="1">
        <rect width="25" height="25" rx="12.5" stroke="none"/>
        <rect x="0.5" y="0.5" width="24" height="24" rx="12" fill="none"/>
      </g>
      <g id="Rectangle_28" data-name="Rectangle 28" transform="translate(157 64)" fill="#aff2f0" stroke="#707070" stroke-width="1">
        <rect width="25" height="25" rx="12.5" stroke="none"/>
        <rect x="0.5" y="0.5" width="24" height="24" rx="12" fill="none"/>
      </g>
      <g id="Rectangle_29" data-name="Rectangle 29" transform="translate(271 41)" fill="#aff2f0" stroke="#707070" stroke-width="1">
        <rect width="25" height="25" rx="12.5" stroke="none"/>
        <rect x="0.5" y="0.5" width="24" height="24" rx="12" fill="none"/>
      </g>
      <g id="Rectangle_33" data-name="Rectangle 33" transform="translate(353 106)" fill="#aff2f0" stroke="#707070" stroke-width="1">
        <rect width="25" height="25" rx="12.5" stroke="none"/>
        <rect x="0.5" y="0.5" width="24" height="24" rx="12" fill="none"/>
      </g>
      <g id="Rectangle_35" data-name="Rectangle 35" transform="translate(393 186)" fill="#aff2f0" stroke="#707070" stroke-width="1">
        <rect width="25" height="25" rx="12.5" stroke="none"/>
        <rect x="0.5" y="0.5" width="24" height="24" rx="12" fill="none"/>
      </g>
      <g id="Rectangle_42" data-name="Rectangle 42" transform="translate(681 143)" fill="#aff2f0" stroke="#707070" stroke-width="1">
        <rect width="25" height="25" rx="12.5" stroke="none"/>
        <rect x="0.5" y="0.5" width="24" height="24" rx="12" fill="none"/>
      </g>
      <g id="Rectangle_46" data-name="Rectangle 46" transform="translate(838 73)" fill="#aff2f0" stroke="#707070" stroke-width="1">
        <rect width="25" height="25" rx="12.5" stroke="none"/>
        <rect x="0.5" y="0.5" width="24" height="24" rx="12" fill="none"/>
      </g>
      <text id="_1" data-name="1" transform="translate(170 81)" font-size="18" font-family="SegoeUI, Segoe UI"><tspan x="-4.852" y="0">1</tspan></text>
      <text id="_1-2" data-name="1" transform="translate(284 58)" font-size="18" font-family="SegoeUI, Segoe UI"><tspan x="-4.852" y="0">1</tspan></text>
      <text id="_1-3" data-name="1" transform="translate(366 123)" font-size="18" font-family="SegoeUI, Segoe UI"><tspan x="-4.852" y="0">1</tspan></text>
      <text id="_1-4" data-name="1" transform="translate(406 203)" font-size="18" font-family="SegoeUI, Segoe UI"><tspan x="-4.852" y="0">1</tspan></text>
      <text id="_1-5" data-name="1" transform="translate(694 160)" font-size="18" font-family="SegoeUI, Segoe UI"><tspan x="-4.852" y="0">1</tspan></text>
      <text id="_1-6" data-name="1" transform="translate(851 90)" font-size="18" font-family="SegoeUI, Segoe UI"><tspan x="-4.852" y="0">1</tspan></text>
      <text id="_2" data-name="2" transform="translate(145 81)" font-size="18" font-family="SegoeUI, Segoe UI"><tspan x="-4.852" y="0">2</tspan></text>
      <text id="_2-2" data-name="2" transform="translate(302 156)" font-size="18" font-family="SegoeUI, Segoe UI"><tspan x="-4.852" y="0">2</tspan></text>
      <text id="_2-3" data-name="2" transform="translate(431 133)" font-size="18" font-family="SegoeUI, Segoe UI"><tspan x="-4.852" y="0">2</tspan></text>
      <text id="_2-4" data-name="2" transform="translate(621 130)" font-size="18" font-family="SegoeUI, Segoe UI"><tspan x="-4.852" y="0">2</tspan></text>
      <text id="_2-5" data-name="2" transform="translate(658 192)" font-size="18" font-family="SegoeUI, Segoe UI"><tspan x="-4.852" y="0">2</tspan></text>
      <text id="_2-6" data-name="2" transform="translate(776 91)" font-size="18" font-family="SegoeUI, Segoe UI"><tspan x="-4.852" y="0">2</tspan></text>
      <text id="_3" data-name="3" transform="translate(120 81)" font-size="18" font-family="SegoeUI, Segoe UI"><tspan x="-4.852" y="0">3</tspan></text>
      <text id="_3-2" data-name="3" transform="translate(263 70)" font-size="18" font-family="SegoeUI, Segoe UI"><tspan x="-4.852" y="0">3</tspan></text>
      <text id="_3-3" data-name="3" transform="translate(402 28)" font-size="18" font-family="SegoeUI, Segoe UI"><tspan x="-4.852" y="0">3</tspan></text>
      <text id="_3-4" data-name="3" transform="translate(659 52)" font-size="18" font-family="SegoeUI, Segoe UI"><tspan x="-4.852" y="0">3</tspan></text>
      <text id="_3-5" data-name="3" transform="translate(826 90)" font-size="18" font-family="SegoeUI, Segoe UI"><tspan x="-4.852" y="0">3</tspan></text>
      <text id="_4" data-name="4" transform="translate(95 81)" font-size="18" font-family="SegoeUI, Segoe UI"><tspan x="-4.852" y="0">4</tspan></text>
      <text id="_4-2" data-name="4" transform="translate(284 137)" font-size="18" font-family="SegoeUI, Segoe UI"><tspan x="-4.852" y="0">4</tspan></text>
      <text id="_4-3" data-name="4" transform="translate(431 202)" font-size="18" font-family="SegoeUI, Segoe UI"><tspan x="-4.852" y="0">4</tspan></text>
      <text id="_4-4" data-name="4" transform="translate(677 177)" font-size="18" font-family="SegoeUI, Segoe UI"><tspan x="-4.852" y="0">4</tspan></text>
      <text id="_4-5" data-name="4" transform="translate(801 90)" font-size="18" font-family="SegoeUI, Segoe UI"><tspan x="-4.852" y="0">4</tspan></text>
    </g>
    <g id="Component_22_1" data-name="Component 22 – 1" transform="matrix(0.875, -0.485, 0.485, 0.875, 237.88, 52.04)">
      <line id="Line_91" data-name="Line 91" x2="32" transform="translate(0 2.5)" fill="none" stroke="#000" stroke-width="1"/>
      <g id="Polygon_1" data-name="Polygon 1" transform="translate(36) rotate(90)">
        <path d="M 4.097875118255615 3.5 L 0.9021250009536743 3.5 L 2.5 0.9434000253677368 L 4.097875118255615 3.5 Z" stroke="none"/>
        <path d="M 2.5 1.886800050735474 L 1.804250001907349 3 L 3.195749998092651 3 L 2.5 1.886800050735474 M 2.5 0 L 5 4 L 0 4 L 2.5 0 Z" stroke="none" fill="#000"/>
      </g>
    </g>
    <g id="Component_22_10" data-name="Component 22 – 10" transform="matrix(0.695, -0.719, 0.719, 0.695, 667.532, 200.801)">
      <line id="Line_91-2" data-name="Line 91" x2="32" transform="translate(0 2.5)" fill="none" stroke="#000" stroke-width="1"/>
      <g id="Polygon_1-2" data-name="Polygon 1" transform="translate(36) rotate(90)">
        <path d="M 4.097875118255615 3.5 L 0.9021250009536743 3.5 L 2.5 0.9434000253677368 L 4.097875118255615 3.5 Z" stroke="none"/>
        <path d="M 2.5 1.886800050735474 L 1.804250001907349 3 L 3.195749998092651 3 L 2.5 1.886800050735474 M 2.5 0 L 5 4 L 0 4 L 2.5 0 Z" stroke="none" fill="#000"/>
      </g>
    </g>
    <g id="Component_22_6" data-name="Component 22 – 6" transform="translate(296.151 118.726) rotate(40)">
      <line id="Line_91-3" data-name="Line 91" x2="32" fill="none" stroke="#000" stroke-width="1"/>
      <g id="Polygon_1-3" data-name="Polygon 1" transform="translate(24.611 5.378) rotate(90)">
        <path d="M 4.097875118255615 3.5 L 0.9021250009536743 3.5 L 2.5 0.9434000253677368 L 4.097875118255615 3.5 Z" stroke="none"/>
        <path d="M 2.5 1.886800050735474 L 1.804250001907349 3 L 3.195749998092651 3 L 2.5 1.886800050735474 M 2.5 0 L 5 4 L 0 4 L 2.5 0 Z" stroke="none" fill="#000"/>
      </g>
    </g>
    <g id="Component_22_8" data-name="Component 22 – 8" transform="matrix(0.819, 0.574, -0.574, 0.819, 670.4, 49.038)">
      <line id="Line_91-4" data-name="Line 91" x2="32" transform="translate(0 2.5)" fill="none" stroke="#000" stroke-width="1"/>
      <g id="Polygon_1-4" data-name="Polygon 1" transform="translate(36) rotate(90)">
        <path d="M 4.097875118255615 3.5 L 0.9021250009536743 3.5 L 2.5 0.9434000253677368 L 4.097875118255615 3.5 Z" stroke="none"/>
        <path d="M 2.5 1.886800050735474 L 1.804250001907349 3 L 3.195749998092651 3 L 2.5 1.886800050735474 M 2.5 0 L 5 4 L 0 4 L 2.5 0 Z" stroke="none" fill="#000"/>
      </g>
    </g>
    <g id="Component_22_5" data-name="Component 22 – 5" transform="matrix(0.875, -0.485, 0.485, 0.875, 443.504, 118.04)">
      <line id="Line_91-5" data-name="Line 91" x2="32" transform="translate(0 2.5)" fill="none" stroke="#000" stroke-width="1"/>
      <g id="Polygon_1-5" data-name="Polygon 1" transform="translate(36) rotate(90)">
        <path d="M 4.097875118255615 3.5 L 0.9021250009536743 3.5 L 2.5 0.9434000253677368 L 4.097875118255615 3.5 Z" stroke="none"/>
        <path d="M 2.5 1.886800050735474 L 1.804250001907349 3 L 3.195749998092651 3 L 2.5 1.886800050735474 M 2.5 0 L 5 4 L 0 4 L 2.5 0 Z" stroke="none" fill="#000"/>
      </g>
    </g>
    <g id="Component_22_2" data-name="Component 22 – 2" transform="translate(419.835 18.726)">
      <line id="Line_91-6" data-name="Line 91" x2="32" transform="translate(0 2.5)" fill="none" stroke="#000" stroke-width="1"/>
      <g id="Polygon_1-6" data-name="Polygon 1" transform="translate(36) rotate(90)">
        <path d="M 4.097875118255615 3.5 L 0.9021250009536743 3.5 L 2.5 0.9434000253677368 L 4.097875118255615 3.5 Z" stroke="none"/>
        <path d="M 2.5 1.886800050735474 L 1.804250001907349 3 L 3.195749998092651 3 L 2.5 1.886800050735474 M 2.5 0 L 5 4 L 0 4 L 2.5 0 Z" stroke="none" fill="#000"/>
      </g>
    </g>
    <g id="Component_22_4" data-name="Component 22 – 4" transform="translate(443.504 199.274)">
      <line id="Line_91-7" data-name="Line 91" x2="32" transform="translate(0 2.5)" fill="none" stroke="#000" stroke-width="1"/>
      <g id="Polygon_1-7" data-name="Polygon 1" transform="translate(36) rotate(90)">
        <path d="M 4.097875118255615 3.5 L 0.9021250009536743 3.5 L 2.5 0.9434000253677368 L 4.097875118255615 3.5 Z" stroke="none"/>
        <path d="M 2.5 1.886800050735474 L 1.804250001907349 3 L 3.195749998092651 3 L 2.5 1.886800050735474 M 2.5 0 L 5 4 L 0 4 L 2.5 0 Z" stroke="none" fill="#000"/>
      </g>
    </g>
    <g id="Component_22_7" data-name="Component 22 – 7" transform="translate(778.835 66)">
      <line id="Line_91-8" data-name="Line 91" x2="32" transform="translate(0 2.5)" fill="none" stroke="#000" stroke-width="1"/>
      <g id="Polygon_1-8" data-name="Polygon 1" transform="translate(36) rotate(90)">
        <path d="M 4.097875118255615 3.5 L 0.9021250009536743 3.5 L 2.5 0.9434000253677368 L 4.097875118255615 3.5 Z" stroke="none"/>
        <path d="M 2.5 1.886800050735474 L 1.804250001907349 3 L 3.195749998092651 3 L 2.5 1.886800050735474 M 2.5 0 L 5 4 L 0 4 L 2.5 0 Z" stroke="none" fill="#000"/>
      </g>
    </g>
    <g id="Component_22_11" data-name="Component 22 – 11" transform="translate(109.835 56.41)">
      <line id="Line_91-9" data-name="Line 91" x2="32" transform="translate(0 2.5)" fill="none" stroke="#000" stroke-width="1"/>
      <g id="Polygon_1-9" data-name="Polygon 1" transform="translate(36) rotate(90)">
        <path d="M 4.097875118255615 3.5 L 0.9021250009536743 3.5 L 2.5 0.9434000253677368 L 4.097875118255615 3.5 Z" stroke="none"/>
        <path d="M 2.5 1.886800050735474 L 1.804250001907349 3 L 3.195749998092651 3 L 2.5 1.886800050735474 M 2.5 0 L 5 4 L 0 4 L 2.5 0 Z" stroke="none" fill="#000"/>
      </g>
    </g>
    <g id="Component_22_3" data-name="Component 22 – 3" transform="translate(364.335 138.905) rotate(90)">
      <line id="Line_91-10" data-name="Line 91" x2="32" transform="translate(0 2.5)" fill="none" stroke="#000" stroke-width="1"/>
      <g id="Polygon_1-10" data-name="Polygon 1" transform="translate(36) rotate(90)">
        <path d="M 4.097875118255615 3.5 L 0.9021250009536743 3.5 L 2.5 0.9434000253677368 L 4.097875118255615 3.5 Z" stroke="none"/>
        <path d="M 2.5 1.886800050735474 L 1.804250001907349 3 L 3.195749998092651 3 L 2.5 1.886800050735474 M 2.5 0 L 5 4 L 0 4 L 2.5 0 Z" stroke="none" fill="#000"/>
      </g>
    </g>
    <g id="Component_22_9" data-name="Component 22 – 9" transform="translate(621.335 138.905) rotate(90)">
      <line id="Line_91-11" data-name="Line 91" x2="32" transform="translate(0 2.5)" fill="none" stroke="#000" stroke-width="1"/>
      <g id="Polygon_1-11" data-name="Polygon 1" transform="translate(36) rotate(90)">
        <path d="M 4.097875118255615 3.5 L 0.9021250009536743 3.5 L 2.5 0.9434000253677368 L 4.097875118255615 3.5 Z" stroke="none"/>
        <path d="M 2.5 1.886800050735474 L 1.804250001907349 3 L 3.195749998092651 3 L 2.5 1.886800050735474 M 2.5 0 L 5 4 L 0 4 L 2.5 0 Z" stroke="none" fill="#000"/>
      </g>
    </g>
  </g>
</svg>
