<svg xmlns="http://www.w3.org/2000/svg" xmlns:xlink="http://www.w3.org/1999/xlink" width="959" height="303" viewBox="0 0 959 303">
  <defs>
    <filter id="Line_41" x="38.5" y="134.5" width="215" height="23" filterUnits="userSpaceOnUse">
      <feOffset dy="3" input="SourceAlpha"/>
      <feGaussianBlur stdDeviation="3" result="blur"/>
      <feFlood flood-opacity="0.161"/>
      <feComposite operator="in" in2="blur"/>
      <feComposite in="SourceGraphic"/>
    </filter>
    <filter id="Line_77" x="199.545" y="41.545" width="195.91" height="134.91" filterUnits="userSpaceOnUse">
      <feOffset dy="3" input="SourceAlpha"/>
      <feGaussianBlur stdDeviation="3" result="blur-2"/>
      <feFlood flood-opacity="0.161"/>
      <feComposite operator="in" in2="blur-2"/>
      <feComposite in="SourceGraphic"/>
    </filter>
    <filter id="Line_78" x="333.513" y="43.513" width="300.974" height="221.974" filterUnits="userSpaceOnUse">
      <feOffset dy="3" input="SourceAlpha"/>
      <feGaussianBlur stdDeviation="3" result="blur-3"/>
      <feFlood flood-opacity="0.161"/>
      <feComposite operator="in" in2="blur-3"/>
      <feComposite in="SourceGraphic"/>
    </filter>
    <filter id="Line_79" x="593.469" y="122.469" width="155.063" height="143.063" filterUnits="userSpaceOnUse">
      <feOffset dy="3" input="SourceAlpha"/>
      <feGaussianBlur stdDeviation="3" result="blur-4"/>
      <feFlood flood-opacity="0.161"/>
      <feComposite operator="in" in2="blur-4"/>
      <feComposite in="SourceGraphic"/>
    </filter>
    <filter id="Line_80" x="705.5" y="134.5" width="215" height="23" filterUnits="userSpaceOnUse">
      <feOffset dy="3" input="SourceAlpha"/>
      <feGaussianBlur stdDeviation="3" result="blur-5"/>
      <feFlood flood-opacity="0.161"/>
      <feComposite operator="in" in2="blur-5"/>
      <feComposite in="SourceGraphic"/>
    </filter>
    <filter id="Line_81" x="574.522" y="41.522" width="183.957" height="134.957" filterUnits="userSpaceOnUse">
      <feOffset dy="3" input="SourceAlpha"/>
      <feGaussianBlur stdDeviation="3" result="blur-6"/>
      <feFlood flood-opacity="0.161"/>
      <feComposite operator="in" in2="blur-6"/>
      <feComposite in="SourceGraphic"/>
    </filter>
    <filter id="Line_82" x="334.5" y="66.5" width="299" height="23" filterUnits="userSpaceOnUse">
      <feOffset dy="3" input="SourceAlpha"/>
      <feGaussianBlur stdDeviation="3" result="blur-7"/>
      <feFlood flood-opacity="0.161"/>
      <feComposite operator="in" in2="blur-7"/>
      <feComposite in="SourceGraphic"/>
    </filter>
    <filter id="Line_83" x="344.5" y="241.5" width="278" height="23" filterUnits="userSpaceOnUse">
      <feOffset dy="3" input="SourceAlpha"/>
      <feGaussianBlur stdDeviation="3" result="blur-8"/>
      <feFlood flood-opacity="0.161"/>
      <feComposite operator="in" in2="blur-8"/>
      <feComposite in="SourceGraphic"/>
    </filter>
    <filter id="Line_84" x="210.476" y="122.476" width="164.048" height="143.048" filterUnits="userSpaceOnUse">
      <feOffset dy="3" input="SourceAlpha"/>
      <feGaussianBlur stdDeviation="3" result="blur-9"/>
      <feFlood flood-opacity="0.161"/>
      <feComposite operator="in" in2="blur-9"/>
      <feComposite in="SourceGraphic"/>
    </filter>
    <filter id="Path_2" x="0" y="96" width="100" height="100" filterUnits="userSpaceOnUse">
      <feOffset dy="3" input="SourceAlpha"/>
      <feGaussianBlur stdDeviation="3" result="blur-10"/>
      <feFlood flood-opacity="0.161"/>
      <feComposite operator="in" in2="blur-10"/>
      <feComposite in="SourceGraphic"/>
    </filter>
    <filter id="Ellipse_28" x="178" y="96" width="100" height="100" filterUnits="userSpaceOnUse">
      <feOffset dy="3" input="SourceAlpha"/>
      <feGaussianBlur stdDeviation="3" result="blur-11"/>
      <feFlood flood-opacity="0.161"/>
      <feComposite operator="in" in2="blur-11"/>
      <feComposite in="SourceGraphic"/>
    </filter>
    <filter id="Ellipse_28-2" x="306" y="28" width="100" height="100" filterUnits="userSpaceOnUse">
      <feOffset dy="3" input="SourceAlpha"/>
      <feGaussianBlur stdDeviation="3" result="blur-12"/>
      <feFlood flood-opacity="0.161"/>
      <feComposite operator="in" in2="blur-12"/>
      <feComposite in="SourceGraphic"/>
    </filter>
    <filter id="Ellipse_28-3" x="306" y="203" width="100" height="100" filterUnits="userSpaceOnUse">
      <feOffset dy="3" input="SourceAlpha"/>
      <feGaussianBlur stdDeviation="3" result="blur-13"/>
      <feFlood flood-opacity="0.161"/>
      <feComposite operator="in" in2="blur-13"/>
      <feComposite in="SourceGraphic"/>
    </filter>
    <filter id="Ellipse_28-4" x="561" y="203" width="100" height="100" filterUnits="userSpaceOnUse">
      <feOffset dy="3" input="SourceAlpha"/>
      <feGaussianBlur stdDeviation="3" result="blur-14"/>
      <feFlood flood-opacity="0.161"/>
      <feComposite operator="in" in2="blur-14"/>
      <feComposite in="SourceGraphic"/>
    </filter>
    <filter id="Ellipse_28-5" x="561" y="28" width="100" height="100" filterUnits="userSpaceOnUse">
      <feOffset dy="3" input="SourceAlpha"/>
      <feGaussianBlur stdDeviation="3" result="blur-15"/>
      <feFlood flood-opacity="0.161"/>
      <feComposite operator="in" in2="blur-15"/>
      <feComposite in="SourceGraphic"/>
    </filter>
    <filter id="Ellipse_28-6" x="681" y="96" width="100" height="100" filterUnits="userSpaceOnUse">
      <feOffset dy="3" input="SourceAlpha"/>
      <feGaussianBlur stdDeviation="3" result="blur-16"/>
      <feFlood flood-opacity="0.161"/>
      <feComposite operator="in" in2="blur-16"/>
      <feComposite in="SourceGraphic"/>
    </filter>
    <filter id="Ellipse_42" x="859" y="96" width="100" height="100" filterUnits="userSpaceOnUse">
      <feOffset dy="3" input="SourceAlpha"/>
      <feGaussianBlur stdDeviation="3" result="blur-17"/>
      <feFlood flood-opacity="0.161"/>
      <feComposite operator="in" in2="blur-17"/>
      <feComposite in="SourceGraphic"/>
    </filter>
  </defs>
  <g id="Switching_Circuit" transform="translate(9)">
    <g transform="matrix(1, 0, 0, 1, -9, 0)" filter="url(#Line_41)">
      <line id="Line_41-2" data-name="Line 41" x2="192" transform="translate(50 143)" fill="rgba(0,0,0,0)" stroke="#fff" stroke-linecap="square" stroke-width="5"/>
    </g>
    <g transform="matrix(1, 0, 0, 1, -9, 0)" filter="url(#Line_77)">
      <line id="Line_77-2" data-name="Line 77" y1="110" x2="171" transform="translate(212 51)" fill="rgba(0,0,0,0)" stroke="#fff" stroke-linecap="square" stroke-width="5"/>
    </g>
    <g transform="matrix(1, 0, 0, 1, -9, 0)" filter="url(#Line_78)">
      <line id="Line_78-2" data-name="Line 78" y1="197" x2="276" transform="translate(346 53)" fill="rgba(0,0,0,0)" stroke="#fff" stroke-linecap="square" stroke-width="5"/>
    </g>
    <g transform="matrix(1, 0, 0, 1, -9, 0)" filter="url(#Line_79)">
      <line id="Line_79-2" data-name="Line 79" y1="118" x2="130" transform="translate(606 132)" fill="rgba(0,0,0,0)" stroke="#fff" stroke-linecap="square" stroke-width="5"/>
    </g>
    <g transform="matrix(1, 0, 0, 1, -9, 0)" filter="url(#Line_80)">
      <line id="Line_80-2" data-name="Line 80" x2="192" transform="translate(717 143)" fill="rgba(0,0,0,0)" stroke="#fff" stroke-linecap="square" stroke-width="5"/>
    </g>
    <g transform="matrix(1, 0, 0, 1, -9, 0)" filter="url(#Line_81)">
      <line id="Line_81-2" data-name="Line 81" x1="159" y1="110" transform="translate(587 51)" fill="rgba(0,0,0,0)" stroke="#fff" stroke-linecap="square" stroke-width="5"/>
    </g>
    <g transform="matrix(1, 0, 0, 1, -9, 0)" filter="url(#Line_82)">
      <line id="Line_82-2" data-name="Line 82" x1="276" transform="translate(346 75)" fill="rgba(0,0,0,0)" stroke="#fff" stroke-linecap="square" stroke-width="5"/>
    </g>
    <g transform="matrix(1, 0, 0, 1, -9, 0)" filter="url(#Line_83)">
      <line id="Line_83-2" data-name="Line 83" x1="255" transform="translate(356 250)" fill="rgba(0,0,0,0)" stroke="#fff" stroke-linecap="square" stroke-width="5"/>
    </g>
    <g transform="matrix(1, 0, 0, 1, -9, 0)" filter="url(#Line_84)">
      <line id="Line_84-2" data-name="Line 84" x1="139" y1="118" transform="translate(223 132)" fill="rgba(0,0,0,0)" stroke="#fff" stroke-linecap="square" stroke-width="5"/>
    </g>
    <line id="Line_85" data-name="Line 85" y1="0.334" x2="178" transform="translate(41.5 130.5)" fill="none" stroke="#414141" stroke-width="3" stroke-dasharray="10"/>
    <line id="Line_87" data-name="Line 87" x2="319" transform="translate(322.429 54.5)" fill="none" stroke="#414141" stroke-width="3" stroke-dasharray="10"/>
    <line id="Line_88" data-name="Line 88" x2="161" y2="115" transform="translate(587.196 42.5)" fill="none" stroke="#414141" stroke-width="3" stroke-dasharray="10"/>
    <path id="Path_3" data-name="Path 3" d="M0,0H185.17" transform="translate(700.33 130.834)" fill="none" stroke="#414141" stroke-width="3" stroke-dasharray="10"/>
    <line id="Line_86" data-name="Line 86" y1="103" x2="159" transform="translate(202.843 48.5)" fill="none" stroke="#414141" stroke-width="3" stroke-dasharray="10"/>
    <g id="Component_20_2" data-name="Component 20 – 2" transform="translate(0 102)">
      <g transform="matrix(1, 0, 0, 1, -9, -102)" filter="url(#Path_2)">
        <g id="Path_2-2" data-name="Path 2" transform="translate(9 102)" fill="#aff2af">
          <path d="M 41 81.5 C 35.53231048583984 81.5 30.22844505310059 80.42925262451172 25.23572158813477 78.31751251220703 C 20.41307830810547 76.27770233154297 16.08178901672363 73.35743713378906 12.36217784881592 69.63782501220703 C 8.642566680908203 65.918212890625 5.722300052642822 61.58692169189453 3.682488918304443 56.76427841186523 C 1.570744395256042 51.77155685424805 0.5 46.46768951416016 0.5 41 C 0.5 35.53231048583984 1.570744395256042 30.22844505310059 3.682488918304443 25.23572158813477 C 5.722300052642822 20.41307830810547 8.642566680908203 16.08178901672363 12.36217784881592 12.36217784881592 C 16.08178901672363 8.642566680908203 20.41307830810547 5.722300052642822 25.23572158813477 3.682488918304443 C 30.22844505310059 1.570744395256042 35.53231048583984 0.5 41 0.5 C 46.46768951416016 0.5 51.77155685424805 1.570744395256042 56.76427841186523 3.682488918304443 C 61.58692169189453 5.722300052642822 65.918212890625 8.642566680908203 69.63782501220703 12.36217784881592 C 73.35743713378906 16.08178901672363 76.27770233154297 20.41307830810547 78.31751251220703 25.23572158813477 C 80.42925262451172 30.22844505310059 81.5 35.53231048583984 81.5 41 C 81.5 46.46768951416016 80.42925262451172 51.77155685424805 78.31751251220703 56.76427841186523 C 76.27770233154297 61.58692169189453 73.35743713378906 65.918212890625 69.63782501220703 69.63782501220703 C 65.918212890625 73.35743713378906 61.58692169189453 76.27770233154297 56.76427841186523 78.31751251220703 C 51.77155685424805 80.42925262451172 46.46768951416016 81.5 41 81.5 Z" stroke="none"/>
          <path d="M 41 1 C 35.59959030151367 1 30.36125564575195 2.057456970214844 25.43050003051758 4.142990112304688 C 20.66744613647461 6.157585144042969 16.38957977294922 9.041877746582031 12.71572113037109 12.71572113037109 C 9.041877746582031 16.38957977294922 6.157585144042969 20.66744613647461 4.142990112304688 25.43050003051758 C 2.057456970214844 30.36125564575195 1 35.59959030151367 1 41 C 1 46.40040969848633 2.057456970214844 51.63874435424805 4.142990112304688 56.56949996948242 C 6.157585144042969 61.33255767822266 9.041877746582031 65.61042022705078 12.71572113037109 69.28427886962891 C 16.38957977294922 72.95812225341797 20.66744613647461 75.8424072265625 25.43050003051758 77.85700988769531 C 30.36125564575195 79.94254302978516 35.59959030151367 81 41 81 C 46.40040969848633 81 51.63874435424805 79.94254302978516 56.56949996948242 77.85700988769531 C 61.33255767822266 75.8424072265625 65.61042022705078 72.95812225341797 69.28427886962891 69.28427886962891 C 72.95812225341797 65.61042022705078 75.8424072265625 61.33255767822266 77.85700988769531 56.56949996948242 C 79.94254302978516 51.63874435424805 81 46.40040969848633 81 41 C 81 35.59959030151367 79.94254302978516 30.36125564575195 77.85700988769531 25.43050003051758 C 75.8424072265625 20.66744613647461 72.95812225341797 16.38957977294922 69.28427886962891 12.71572113037109 C 65.61042022705078 9.041877746582031 61.33255767822266 6.157585144042969 56.56949996948242 4.142990112304688 C 51.63874435424805 2.057456970214844 46.40040969848633 1 41 1 M 41 0 C 63.6436767578125 0 82 18.3563232421875 82 41 C 82 63.6436767578125 63.6436767578125 82 41 82 C 18.3563232421875 82 0 63.6436767578125 0 41 C 0 18.3563232421875 18.3563232421875 0 41 0 Z" stroke="none" fill="#707070"/>
        </g>
      </g>
    </g>
    <g id="Component_15_2" data-name="Component 15 – 2" transform="translate(178 102)">
      <g transform="matrix(1, 0, 0, 1, -187, -102)" filter="url(#Ellipse_28)">
        <g id="Ellipse_28-7" data-name="Ellipse 28" transform="translate(187 102)" fill="#f2afaf" stroke="#707070" stroke-width="1">
          <circle cx="41" cy="41" r="41" stroke="none"/>
          <circle cx="41" cy="41" r="40.5" fill="none"/>
        </g>
      </g>
    </g>
    <g id="Component_15_3" data-name="Component 15 – 3" transform="translate(306 34)">
      <g transform="matrix(1, 0, 0, 1, -315, -34)" filter="url(#Ellipse_28-2)">
        <g id="Ellipse_28-8" data-name="Ellipse 28" transform="translate(315 34)" fill="#f2afaf" stroke="#707070" stroke-width="1">
          <circle cx="41" cy="41" r="41" stroke="none"/>
          <circle cx="41" cy="41" r="40.5" fill="none"/>
        </g>
      </g>
    </g>
    <g id="Component_15_4" data-name="Component 15 – 4" transform="translate(306 209)">
      <g transform="matrix(1, 0, 0, 1, -315, -209)" filter="url(#Ellipse_28-3)">
        <g id="Ellipse_28-9" data-name="Ellipse 28" transform="translate(315 209)" fill="#f2afaf" stroke="#707070" stroke-width="1">
          <circle cx="41" cy="41" r="41" stroke="none"/>
          <circle cx="41" cy="41" r="40.5" fill="none"/>
        </g>
      </g>
    </g>
    <g id="Component_15_5" data-name="Component 15 – 5" transform="translate(561 209)">
      <g transform="matrix(1, 0, 0, 1, -570, -209)" filter="url(#Ellipse_28-4)">
        <g id="Ellipse_28-10" data-name="Ellipse 28" transform="translate(570 209)" fill="#f2afaf" stroke="#707070" stroke-width="1">
          <circle cx="41" cy="41" r="41" stroke="none"/>
          <circle cx="41" cy="41" r="40.5" fill="none"/>
        </g>
      </g>
    </g>
    <g id="Component_15_6" data-name="Component 15 – 6" transform="translate(561 34)">
      <g transform="matrix(1, 0, 0, 1, -570, -34)" filter="url(#Ellipse_28-5)">
        <g id="Ellipse_28-11" data-name="Ellipse 28" transform="translate(570 34)" fill="#f2afaf" stroke="#707070" stroke-width="1">
          <circle cx="41" cy="41" r="41" stroke="none"/>
          <circle cx="41" cy="41" r="40.5" fill="none"/>
        </g>
      </g>
    </g>
    <g id="Component_15_7" data-name="Component 15 – 7" transform="translate(681 102)">
      <g transform="matrix(1, 0, 0, 1, -690, -102)" filter="url(#Ellipse_28-6)">
        <g id="Ellipse_28-12" data-name="Ellipse 28" transform="translate(690 102)" fill="#f2afaf" stroke="#707070" stroke-width="1">
          <circle cx="41" cy="41" r="41" stroke="none"/>
          <circle cx="41" cy="41" r="40.5" fill="none"/>
        </g>
      </g>
    </g>
    <g id="Component_19_2" data-name="Component 19 – 2" transform="translate(859 102)">
      <g transform="matrix(1, 0, 0, 1, -868, -102)" filter="url(#Ellipse_42)">
        <g id="Ellipse_42-2" data-name="Ellipse 42" transform="translate(868 102)" fill="#afb1f2" stroke="#707070" stroke-width="1">
          <circle cx="41" cy="41" r="41" stroke="none"/>
          <circle cx="41" cy="41" r="40.5" fill="none"/>
        </g>
      </g>
    </g>
    <g id="Rectangle_23" data-name="Rectangle 23" transform="translate(82 89)" fill="#aff2f0" stroke="#707070" stroke-width="1">
      <rect width="103" height="34" rx="17" stroke="none"/>
      <rect x="0.5" y="0.5" width="102" height="33" rx="16.5" fill="none"/>
    </g>
    <g id="Rectangle_24" data-name="Rectangle 24" transform="translate(419)" fill="#aff2f0" stroke="#707070" stroke-width="1">
      <rect width="103" height="34" rx="17" stroke="none"/>
      <rect x="0.5" y="0.5" width="102" height="33" rx="16.5" fill="none"/>
    </g>
    <g id="Rectangle_25" data-name="Rectangle 25" transform="matrix(0.819, 0.574, -0.574, 0.819, 662.733, 26.07)" fill="#aff2f0" stroke="#707070" stroke-width="1">
      <rect width="103" height="34" rx="17" stroke="none"/>
      <rect x="0.5" y="0.5" width="102" height="33" rx="16.5" fill="none"/>
    </g>
    <text id="Message_3" data-name="Message 3" transform="translate(134 109)" font-size="18" font-family="SegoeUI, Segoe UI"><tspan x="-42.328" y="0">Message 3</tspan></text>
    <text id="Message_2" data-name="Message 2" transform="translate(471 19)" font-size="18" font-family="SegoeUI, Segoe UI"><tspan x="-42.328" y="0">Message 2</tspan></text>
    <text id="Message_1" data-name="Message 1" transform="matrix(0.819, 0.574, -0.574, 0.819, 692.868, 70.269)" font-size="18" font-family="SegoeUI, Segoe UI"><tspan x="-42.328" y="0">Message 1</tspan></text>
  </g>
</svg>
